<svg width="128" height="127" viewBox="0 0 128 127" fill="none" xmlns="http://www.w3.org/2000/svg">
<circle cx="65" cy="66" r="56" fill="#EF6C57"/>
<path fill-rule="evenodd" clip-rule="evenodd" d="M60.5 40C58.0147 40 56 42.0147 56 44.5V46H45.5C43.0147 46 41 48.0147 41 50.5V54.652L63.842 60.742C64.6008 60.9441 65.3992 60.9441 66.158 60.742L89 54.652V50.5C89 48.0147 86.9853 46 84.5 46H74V44.5C74 42.0147 71.9853 40 69.5 40H60.5ZM60.5 43H69.5C70.3284 43 71 43.6716 71 44.5V46H59V44.5C59 43.6716 59.6716 43 60.5 43ZM45.5 79C43.0147 79 41 76.9853 41 74.5V57.55L64.613 63.841C64.8666 63.9087 65.1334 63.9087 65.387 63.841L89 57.55V74.5C89 76.9853 86.9853 79 84.5 79H45.5Z" fill="white"/>
</svg>
