<svg width="402" height="267" viewBox="0 0 402 267" fill="none" xmlns="http://www.w3.org/2000/svg">
<g clip-path="url(#clip0_43_370)">
<path fill-rule="evenodd" clip-rule="evenodd" d="M272.057 24.3681C261.724 14.3036 247.353 9.52546 233.053 11.4001C219.128 13.3602 206.759 21.3158 199.197 33.1741C194.881 39.8233 192.251 47.4257 191.536 55.3216L193.448 53.4062C175.753 51.8758 157.95 54.6597 141.566 61.5196C127.807 68.0976 118.087 80.9362 115.487 95.9666C114.131 103.944 115.823 112.139 120.227 118.927L121.5 115.801C99.8967 121.285 81.9549 136.289 72.7327 156.585C68.6021 166.88 67.8784 178.229 70.6678 188.966C73.3903 198.83 79.7034 207.319 88.3659 212.763C97.5991 218.849 109.068 220.488 119.636 217.233L116.706 215.57C123.03 234.283 139.202 247.949 158.704 251.059C180.703 255.425 203.529 252.377 223.612 242.392C235.622 236.742 246.53 228.997 255.824 219.522L254.083 220.244C266.301 220.999 278.553 219.488 290.221 215.787C301.013 212.566 311.253 207.725 320.591 201.428C329.236 195.732 336.479 188.152 341.777 179.256C346.588 170.878 348.703 161.22 347.833 151.597C347.132 140.941 341.893 131.097 333.445 124.565V128.944C345.324 119.88 351.878 105.47 350.905 90.5577C349.765 79.0891 344.09 68.5519 335.143 61.2898C326.195 54.0277 314.718 50.6429 303.263 51.8884L305.053 56.2131C313.119 48.4795 315.322 36.4461 310.519 26.3558C305.475 16.5432 294.403 11.4209 283.661 13.9298C277.742 15.1007 272.463 18.4167 268.837 23.2418C268.178 24.3894 268.562 25.8538 269.699 26.5305C270.849 27.1668 272.295 26.7876 272.985 25.6692C278.631 19.0492 287.776 16.6025 295.972 19.5194C304.246 22.7486 309.181 31.2801 307.855 40.0647C307.371 44.9033 305.094 49.3855 301.472 52.6292C300.771 53.3617 300.57 54.439 300.957 55.3755C301.345 56.3121 302.249 56.9312 303.262 56.9539C316.545 55.4453 329.685 60.7825 338.156 71.1267C346.231 81.4194 348.294 95.2042 343.584 107.411C341.171 114.275 336.747 120.253 330.887 124.565C330.218 124.969 329.77 125.656 329.67 126.432C329.57 127.207 329.83 127.986 330.375 128.546C344.396 141.011 347.216 161.85 337.01 177.594C331.645 186.242 324.335 193.518 315.664 198.844C306.131 204.916 295.713 209.47 284.783 212.342C278.876 213.957 272.826 214.991 266.718 215.432C263.756 215.624 260.782 215.606 257.817 215.51C256.365 215.279 254.889 215.243 253.427 215.402C252.145 216.08 251.034 217.04 250.175 218.208C242.481 225.662 233.712 231.917 224.161 236.766C205.985 246.454 185.238 250.224 164.817 247.548C147.261 245.923 131.674 235.642 123.267 220.142C122.446 218.254 121.787 216.299 121.298 214.299C120.938 213.039 119.634 212.299 118.368 212.637C100.613 217.615 82.0343 208 75.8411 190.628C72.5627 180.971 72.5733 170.5 75.8713 160.849C79.1392 151.22 84.9578 142.658 92.707 136.075C101.441 128.651 111.635 123.144 122.631 119.909C123.264 119.726 123.779 119.263 124.027 118.652C124.275 118.041 124.23 117.35 123.904 116.777C117.134 105.081 118.128 90.4478 126.418 79.776C135.879 67.6161 149.981 59.9521 165.328 58.6284C174.645 57.353 184.054 56.8854 193.45 57.231C194.496 57.2094 195.339 56.3676 195.363 55.3216C196.669 42.4409 203.373 30.7176 213.811 23.0611C224.444 15.4885 237.837 12.896 250.527 15.9537C257.903 17.6164 264.784 20.9944 270.611 25.8137C271.016 26.1738 271.631 26.1557 272.015 25.7724C272.398 25.3891 272.416 24.7734 272.056 24.3681H272.057Z" fill="#E7C4B2"/>
<g filter="url(#filter0_d_43_370)">
<rect x="59" y="60" width="274" height="176" rx="6" fill="white"/>
</g>
<g filter="url(#filter1_d_43_370)">
<rect x="43" y="52" width="306" height="176" rx="6" fill="white"/>
</g>
<g filter="url(#filter2_d_43_370)">
<rect x="27" y="44" width="338" height="176" rx="6" fill="white"/>
</g>
<circle cx="71" cy="88" r="20" fill="#F7CC47"/>
<rect x="51" y="122" width="75" height="14" rx="2" fill="#F5DED1"/>
<rect x="51" y="144" width="126" height="6" rx="3" fill="#F5DED1"/>
<path fill-rule="evenodd" clip-rule="evenodd" d="M268.5 120.67C261.456 121.897 254.32 122.52 247.169 122.531V122.53C246.428 122.542 246.211 123.747 246.989 123.864C255.225 124.974 263.593 124.629 271.709 122.845C286.131 119.859 299.693 113.667 311.388 104.729C317.279 100.262 322.639 95.1352 327.362 89.4502C329.869 86.3734 332.184 83.1495 334.295 79.7971L334.311 79.7192C334.728 77.641 335.151 75.5659 335.588 73.4933C335.873 73.4539 336.158 73.4172 336.444 73.383C337.916 73.212 338.002 70.9878 336.444 71.021C336.334 71.0227 336.224 71.0251 336.114 71.0279C336.213 70.5675 336.313 70.1072 336.415 69.647L339.292 70.857C337.783 73.9246 336.115 76.9086 334.295 79.7971L333.361 84.4845C333.504 84.2424 333.766 84.0874 334.057 84.0874C334.413 84.0874 334.727 84.3194 334.831 84.659C335.125 85.8426 335.29 87.0179 335.458 88.2071C335.514 88.6076 335.571 89.0098 335.633 89.4143L332.41 89.8509C332.436 90.5523 332.912 91.1829 333.621 91.3781C334.476 91.6133 335.364 91.1326 335.633 90.2893C336.112 88.6398 336.463 86.9561 336.685 85.253L337.622 80.4075C338.265 77.1053 338.874 73.7962 339.451 70.4804C339.642 69.7229 339.256 68.9387 338.539 68.6269C337.815 68.3166 336.973 68.5922 336.574 69.2699C336.301 69.8635 336.02 70.4536 335.733 71.0401C333.657 71.1183 331.593 71.3933 329.568 71.8615C328.401 72.1458 327.254 72.5096 326.136 72.9504C325.146 73.2017 324.251 73.7345 323.557 74.4842C323.399 74.7565 323.376 75.0866 323.495 75.3781C323.614 75.6697 323.861 75.8898 324.164 75.9742C325.148 76.0141 326.128 75.8237 327.026 75.4182C327.965 75.1309 328.917 74.8863 329.871 74.6413C329.951 74.6209 330.03 74.6006 330.109 74.5802C331.519 74.2134 332.945 73.9115 334.382 73.6755C331.346 79.3437 327.652 84.6419 323.371 89.4588C313.891 100.234 302.132 108.773 288.943 114.46C282.383 117.286 275.525 119.369 268.5 120.67ZM332.896 86.5242C333.016 85.9352 333.152 85.3494 333.304 84.7673L333.361 84.4845C333.329 84.5386 333.303 84.597 333.284 84.659C333.126 85.2819 333.003 85.9026 332.896 86.5242ZM332.896 86.5242C332.672 87.6244 332.503 88.7355 332.392 89.8534L332.41 89.8509C332.405 89.7073 332.419 89.5607 332.453 89.4143C332.515 89.0215 332.572 88.631 332.63 88.242C332.714 87.667 332.798 87.0952 332.896 86.5242Z" fill="#EF6D58"/>
<rect x="51" y="188" width="289" height="6" rx="3" fill="#F4E4FF"/>
<rect x="51" y="188" width="113" height="6" rx="3" fill="#B550F8"/>
</g>
<defs>
<filter id="filter0_d_43_370" x="11" y="36" width="370" height="272" filterUnits="userSpaceOnUse" color-interpolation-filters="sRGB">
<feFlood flood-opacity="0" result="BackgroundImageFix"/>
<feColorMatrix in="SourceAlpha" type="matrix" values="0 0 0 0 0 0 0 0 0 0 0 0 0 0 0 0 0 0 127 0" result="hardAlpha"/>
<feOffset dy="24"/>
<feGaussianBlur stdDeviation="24"/>
<feColorMatrix type="matrix" values="0 0 0 0 0.333333 0 0 0 0 0.117647 0 0 0 0 0 0 0 0 0.04 0"/>
<feBlend mode="normal" in2="BackgroundImageFix" result="effect1_dropShadow_43_370"/>
<feBlend mode="normal" in="SourceGraphic" in2="effect1_dropShadow_43_370" result="shape"/>
</filter>
<filter id="filter1_d_43_370" x="-5" y="28" width="402" height="272" filterUnits="userSpaceOnUse" color-interpolation-filters="sRGB">
<feFlood flood-opacity="0" result="BackgroundImageFix"/>
<feColorMatrix in="SourceAlpha" type="matrix" values="0 0 0 0 0 0 0 0 0 0 0 0 0 0 0 0 0 0 127 0" result="hardAlpha"/>
<feOffset dy="24"/>
<feGaussianBlur stdDeviation="24"/>
<feColorMatrix type="matrix" values="0 0 0 0 0.333333 0 0 0 0 0.117647 0 0 0 0 0 0 0 0 0.04 0"/>
<feBlend mode="normal" in2="BackgroundImageFix" result="effect1_dropShadow_43_370"/>
<feBlend mode="normal" in="SourceGraphic" in2="effect1_dropShadow_43_370" result="shape"/>
</filter>
<filter id="filter2_d_43_370" x="-21" y="20" width="434" height="272" filterUnits="userSpaceOnUse" color-interpolation-filters="sRGB">
<feFlood flood-opacity="0" result="BackgroundImageFix"/>
<feColorMatrix in="SourceAlpha" type="matrix" values="0 0 0 0 0 0 0 0 0 0 0 0 0 0 0 0 0 0 127 0" result="hardAlpha"/>
<feOffset dy="24"/>
<feGaussianBlur stdDeviation="24"/>
<feColorMatrix type="matrix" values="0 0 0 0 0.333333 0 0 0 0 0.117647 0 0 0 0 0 0 0 0 0.04 0"/>
<feBlend mode="normal" in2="BackgroundImageFix" result="effect1_dropShadow_43_370"/>
<feBlend mode="normal" in="SourceGraphic" in2="effect1_dropShadow_43_370" result="shape"/>
</filter>
<clipPath id="clip0_43_370">
<rect width="402" height="267" fill="white"/>
</clipPath>
</defs>
</svg>
