<svg width="338" height="192" viewBox="0 0 338 192" fill="none" xmlns="http://www.w3.org/2000/svg">
<path d="M32 25.6C32 22.2397 32 20.5595 32.654 19.2761C33.2292 18.1471 34.1471 17.2292 35.2761 16.654C36.5595 16 38.2397 16 41.6 16H296.4C299.76 16 301.44 16 302.724 16.654C303.853 17.2292 304.771 18.1471 305.346 19.2761C306 20.5595 306 22.2397 306 25.6V182.4C306 185.76 306 187.44 305.346 188.724C304.771 189.853 303.853 190.771 302.724 191.346C301.44 192 299.76 192 296.4 192H41.6C38.2397 192 36.5595 192 35.2761 191.346C34.1471 190.771 33.2292 189.853 32.654 188.724C32 187.44 32 185.76 32 182.4V25.6Z" fill="white"/>
<path d="M16 17.6C16 14.2397 16 12.5595 16.654 11.2761C17.2292 10.1471 18.1471 9.2292 19.2761 8.65396C20.5595 8 22.2397 8 25.6 8H312.4C315.76 8 317.44 8 318.724 8.65396C319.853 9.2292 320.771 10.1471 321.346 11.2761C322 12.5595 322 14.2397 322 17.6V174.4C322 177.76 322 179.44 321.346 180.724C320.771 181.853 319.853 182.771 318.724 183.346C317.44 184 315.76 184 312.4 184H25.6C22.2397 184 20.5595 184 19.2761 183.346C18.1471 182.771 17.2292 181.853 16.654 180.724C16 179.44 16 177.76 16 174.4V17.6Z" fill="white"/>
<path d="M0 9.6C0 6.23969 0 4.55953 0.653961 3.27606C1.2292 2.14708 2.14708 1.2292 3.27606 0.653961C4.55953 0 6.23969 0 9.6 0H328.4C331.76 0 333.44 0 334.724 0.653961C335.853 1.2292 336.771 2.14708 337.346 3.27606C338 4.55953 338 6.23969 338 9.6V166.4C338 169.76 338 171.44 337.346 172.724C336.771 173.853 335.853 174.771 334.724 175.346C333.44 176 331.76 176 328.4 176H9.60001C6.23969 176 4.55953 176 3.27606 175.346C2.14708 174.771 1.2292 173.853 0.653961 172.724C0 171.44 0 169.76 0 166.4V9.6Z" fill="white"/>
<path d="M64 44C64 55.0457 55.0457 64 44 64C32.9543 64 24 55.0457 24 44C24 32.9543 32.9543 24 44 24C55.0457 24 64 32.9543 64 44Z" fill="#F7CC47"/>
<path d="M24 81.2C24 80.0799 24 79.5198 24.218 79.092C24.4097 78.7157 24.7157 78.4097 25.092 78.218C25.5198 78 26.0799 78 27.2 78H95.8C96.9201 78 97.4802 78 97.908 78.218C98.2843 78.4097 98.5903 78.7157 98.782 79.092C99 79.5198 99 80.0799 99 81.2V88.8C99 89.9201 99 90.4802 98.782 90.908C98.5903 91.2843 98.2843 91.5903 97.908 91.782C97.4802 92 96.9201 92 95.8 92H27.2C26.0799 92 25.5198 92 25.092 91.782C24.7157 91.5903 24.4097 91.2843 24.218 90.908C24 90.4802 24 89.9201 24 88.8V81.2Z" fill="#F5DED1"/>
<path d="M24 103C24 101.343 25.3431 100 27 100H147C148.657 100 150 101.343 150 103C150 104.657 148.657 106 147 106H27C25.3431 106 24 104.657 24 103Z" fill="#F5DED1"/>
<path d="M241.5 76.6701C234.456 77.8968 227.32 78.5195 220.169 78.5313C219.428 78.5427 219.211 79.7467 219.989 79.8639C228.225 80.974 236.593 80.6291 244.709 78.8451C259.131 75.8586 272.693 69.6665 284.388 60.729C290.279 56.2616 295.639 51.1352 300.362 45.4502C302.869 42.3734 305.184 39.1495 307.295 35.7971L307.311 35.7192C307.728 33.641 308.151 31.5659 308.588 29.4933C308.873 29.4539 309.158 29.4172 309.444 29.383C310.916 29.212 311.002 26.9878 309.444 27.021C309.334 27.0227 309.224 27.0251 309.114 27.0279C309.213 26.5675 309.313 26.1072 309.415 25.647L312.292 26.857C310.783 29.9246 309.115 32.9086 307.295 35.7971L306.361 40.4845C306.504 40.2424 306.766 40.0874 307.057 40.0874C307.413 40.0874 307.727 40.3194 307.831 40.659C308.125 41.8426 308.29 43.0179 308.458 44.2071C308.514 44.6076 308.571 45.0098 308.633 45.4143L305.41 45.8509C305.436 46.5523 305.912 47.1829 306.621 47.3781C307.476 47.6133 308.364 47.1326 308.633 46.2893C309.112 44.6398 309.463 42.9561 309.685 41.253L310.622 36.4075C311.265 33.1053 311.874 29.7962 312.451 26.4804C312.642 25.7229 312.256 24.9387 311.539 24.6269C310.815 24.3166 309.973 24.5922 309.574 25.2699C309.301 25.8635 309.02 26.4536 308.733 27.0401C306.657 27.1183 304.593 27.3933 302.568 27.8615C301.401 28.1458 300.254 28.5096 299.136 28.9504C298.146 29.2017 297.251 29.7345 296.557 30.4842C296.399 30.7565 296.376 31.0866 296.495 31.3781C296.614 31.6697 296.861 31.8898 297.164 31.9742C298.148 32.0141 299.128 31.8237 300.026 31.4182C300.965 31.1309 301.917 30.8863 302.871 30.6413C302.951 30.6209 303.03 30.6006 303.109 30.5802C304.519 30.2134 305.945 29.9115 307.382 29.6755C304.346 35.3437 300.652 40.6419 296.371 45.4588C286.891 56.2339 275.132 64.7733 261.943 70.4605C255.383 73.2857 248.525 75.3685 241.5 76.6701Z" fill="#B550F8"/>
<path d="M305.896 42.5242C306.016 41.9352 306.152 41.3494 306.304 40.7673L306.361 40.4845C306.329 40.5386 306.303 40.597 306.284 40.659C306.126 41.2819 306.003 41.9026 305.896 42.5242Z" fill="#B550F8"/>
<path d="M305.896 42.5242C305.672 43.6244 305.503 44.7355 305.392 45.8534L305.41 45.8509C305.405 45.7073 305.419 45.5607 305.453 45.4143C305.515 45.0215 305.572 44.631 305.63 44.242C305.714 43.667 305.798 43.0952 305.896 42.5242Z" fill="#B550F8"/>
<path d="M24 147C24 145.343 25.3431 144 27 144H310C311.657 144 313 145.343 313 147C313 148.657 311.657 150 310 150H27C25.3431 150 24 148.657 24 147Z" fill="#F4E4FF"/>
<path d="M24 147C24 145.343 25.3431 144 27 144H134C135.657 144 137 145.343 137 147C137 148.657 135.657 150 134 150H27C25.3431 150 24 148.657 24 147Z" fill="#B550F8"/>
</svg>
